<?xml version="1.0" encoding="iso-8859-1"?>
<svg xmlns="http://www.w3.org/2000/svg" >
    <symbol id="block" viewBox="0 0 448 448">
        <path d="M224,0C100.288,0,0,100.288,0,224s100.288,224,224,224s224-100.288,224-224S347.712,0,224,0z M135.921,90.479
                C162.056,73.223,192.682,64.016,224,64c31.363-0.033,62.035,9.208,88.16,26.56l-221.6,221.6
                C41.871,238.418,62.179,139.169,135.921,90.479z M312.079,357.521C285.944,374.777,255.319,383.984,224,384
                c-31.363,0.033-62.035-9.208-88.16-26.56l221.6-221.6C406.129,209.581,385.821,308.831,312.079,357.521z"/>
    </symbol>
    <symbol id="chat" viewBox="0 0 477.867 477.867"> 
        <path d="M426.667,0.002H51.2C22.923,0.002,0,22.925,0,51.202v273.067c0,28.277,22.923,51.2,51.2,51.2h60.587l-9.284,83.456
                c-1.035,9.369,5.721,17.802,15.09,18.837c4.838,0.534,9.674-1.023,13.292-4.279l108.919-98.014h186.863
                c28.277,0,51.2-22.923,51.2-51.2V51.202C477.867,22.925,454.944,0.002,426.667,0.002z"/>
    </symbol>
    <symbol id="send" viewBox="0 0 512 512">
        <path d="M481.508,210.336L68.414,38.926c-17.403-7.222-37.064-4.045-51.309,8.287C2.86,59.547-3.098,78.551,1.558,96.808
                L38.327,241h180.026c8.284,0,15.001,6.716,15.001,15.001c0,8.284-6.716,15.001-15.001,15.001H38.327L1.558,415.193
                c-4.656,18.258,1.301,37.262,15.547,49.595c14.274,12.357,33.937,15.495,51.31,8.287l413.094-171.409
                C500.317,293.862,512,276.364,512,256.001C512,235.638,500.317,218.139,481.508,210.336z"/>
    </symbol>
    <symbol id="speech-bubble" viewBox="0 0 512 512">
        <path d="m436.972 75.033c-100.033-100.04-261.937-100.048-361.978 0-84.357 84.361-96.869 211.467-40.96 308.567l-33.341 107.983c-3.587 11.618 7.473 22.486 19.034 18.667l104.715-34.591c96.37 57.826 226.058 47.852 312.53-38.626 100.033-100.039 100.041-261.953 0-362zm-300.969 107.008c8.283 0 14.998 6.715 14.998 14.998s-6.715 14.998-14.998 14.998-14.998-6.715-14.998-14.998 6.715-14.998 14.998-14.998zm179.97 148.984h-179.97c-8.283 0-14.998-6.715-14.998-14.998s6.715-14.998 14.998-14.998h179.97c8.283 0 14.998 6.715 14.998 14.998-.001 8.283-6.715 14.998-14.998 14.998zm59.99 0c-8.283 0-14.997-6.715-14.997-14.998s6.715-14.998 14.997-14.998 14.998 6.715 14.998 14.998-6.715 14.998-14.998 14.998zm0-59.994h-239.96c-8.283 0-14.998-6.715-14.998-14.998s6.715-14.998 14.998-14.998h239.96c8.283 0 14.998 6.715 14.998 14.998s-6.715 14.998-14.998 14.998zm0-59.993h-179.97c-8.283 0-14.998-6.715-14.998-14.998s6.715-14.998 14.998-14.998h179.97c8.283 0 14.998 6.715 14.998 14.998s-6.715 14.998-14.998 14.998z"/>
    </symbol>
    <symbol id="exit" viewBox="0 0 512 512">
        <g>
			<path d="M510.371,226.513c-1.088-2.603-2.645-4.971-4.629-6.955l-63.979-63.979c-8.341-8.32-21.824-8.32-30.165,0
				c-8.341,8.341-8.341,21.845,0,30.165l27.584,27.584H320.013c-11.797,0-21.333,9.557-21.333,21.333s9.536,21.333,21.333,21.333
				h119.168l-27.584,27.584c-8.341,8.341-8.341,21.845,0,30.165c4.16,4.181,9.621,6.251,15.083,6.251s10.923-2.069,15.083-6.251
				l63.979-63.979c1.984-1.963,3.541-4.331,4.629-6.955C512.525,237.606,512.525,231.718,510.371,226.513z"/>
			<path d="M362.68,298.667c-11.797,0-21.333,9.557-21.333,21.333v106.667h-85.333V85.333c0-9.408-6.187-17.728-15.211-20.437
				l-74.091-22.229h174.635v106.667c0,11.776,9.536,21.333,21.333,21.333s21.333-9.557,21.333-21.333v-128
				C384.013,9.557,374.477,0,362.68,0H21.347c-0.768,0-1.451,0.32-2.197,0.405c-1.003,0.107-1.92,0.277-2.88,0.512
				c-2.24,0.576-4.267,1.451-6.165,2.645c-0.469,0.299-1.045,0.32-1.493,0.661C8.44,4.352,8.376,4.587,8.205,4.715
				C5.88,6.549,3.939,8.789,2.531,11.456c-0.299,0.576-0.363,1.195-0.597,1.792c-0.683,1.621-1.429,3.2-1.685,4.992
				c-0.107,0.64,0.085,1.237,0.064,1.856c-0.021,0.427-0.299,0.811-0.299,1.237V448c0,10.176,7.189,18.923,17.152,20.907
				l213.333,42.667c1.387,0.299,2.795,0.427,4.181,0.427c4.885,0,9.685-1.685,13.525-4.843c4.928-4.053,7.808-10.091,7.808-16.491
				v-21.333H362.68c11.797,0,21.333-9.557,21.333-21.333V320C384.013,308.224,374.477,298.667,362.68,298.667z"/>
		</g>
    </symbol>
    <symbol id="menu" viewBox="0 0 515.555 515.555" >
        <path d="m303.347 18.875c25.167 25.167 25.167 65.971 0 91.138s-65.971 25.167-91.138 0-25.167-65.971 0-91.138c25.166-25.167 65.97-25.167 91.138 0"/>
        <path d="m303.347 212.209c25.167 25.167 25.167 65.971 0 91.138s-65.971 25.167-91.138 0-25.167-65.971 0-91.138c25.166-25.167 65.97-25.167 91.138 0"/>
        <path d="m303.347 405.541c25.167 25.167 25.167 65.971 0 91.138s-65.971 25.167-91.138 0-25.167-65.971 0-91.138c25.166-25.167 65.97-25.167 91.138 0"/>
    </symbol>
</svg>
